<svg width="54" height="48" viewBox="0 0 54 48" fill="none" xmlns="http://www.w3.org/2000/svg">
<rect width="54" height="48" rx="3" transform="matrix(-1 0 0 1 54 0)" fill="#212121"/>
<path d="M22.716 41.5C19.388 41.5 16.572 40.8813 14.268 39.644C12.0067 38.364 10.2787 36.4227 9.084 33.82C7.932 31.2173 7.356 27.9107 7.356 23.9C7.356 19.8467 7.932 16.54 9.084 13.98C10.2787 11.3773 12.028 9.45733 14.332 8.22C16.636 6.94 19.516 6.3 22.972 6.3C26.1293 6.3 28.7747 6.91866 30.908 8.156C33.0413 9.35066 34.6413 11.164 35.708 13.596C36.8173 15.9853 37.372 18.9933 37.372 22.62V25.308H13.18C13.2653 27.996 13.6493 30.2147 14.332 31.964C15.0573 33.6707 16.124 34.9293 17.532 35.74C18.94 36.508 20.7107 36.892 22.844 36.892C24.2947 36.892 25.5533 36.7213 26.62 36.38C27.7293 35.996 28.6467 35.4627 29.372 34.78C30.14 34.0973 30.716 33.2867 31.1 32.348C31.484 31.4093 31.6973 30.3853 31.74 29.276H37.244C37.2013 31.068 36.86 32.732 36.22 34.268C35.58 35.7613 34.6413 37.0413 33.404 38.108C32.1667 39.1747 30.652 40.0067 28.86 40.604C27.068 41.2013 25.02 41.5 22.716 41.5ZM13.308 21.084H31.548C31.548 19.2067 31.3347 17.628 30.908 16.348C30.4813 15.068 29.8627 14.0227 29.052 13.212C28.284 12.4013 27.3667 11.8253 26.3 11.484C25.276 11.1 24.1027 10.908 22.78 10.908C20.8173 10.908 19.1533 11.2707 17.788 11.996C16.4227 12.7213 15.3773 13.8307 14.652 15.324C13.9267 16.8173 13.4787 18.7373 13.308 21.084Z" fill="white"/>
<path d="M40.372 41.5V34.78H46.644V41.5H40.372Z" fill="#FF4D33"/>
</svg>
